<svg width="90" height="90" viewBox="0 0 90 90" fill="none" xmlns="http://www.w3.org/2000/svg">
<path d="M43.1839 36.225C43.1467 35.5931 43.239 34.9604 43.4552 34.3655C43.6714 33.7706 44.0069 33.2262 44.4411 32.7657C44.8753 32.3051 45.399 31.9382 45.9802 31.6874C46.5613 31.4366 47.1876 31.3073 47.8205 31.3073C48.4535 31.3073 49.0797 31.4366 49.6609 31.6874C50.242 31.9382 50.7658 32.3051 51.2 32.7657C51.6342 33.2262 51.9696 33.7706 52.1858 34.3655C52.402 34.9604 52.4943 35.5931 52.4571 36.225V39.6803C52.4199 39.0485 52.5122 38.4157 52.7284 37.8208C52.9446 37.226 53.2801 36.6815 53.7143 36.221C54.1485 35.7605 54.6722 35.3936 55.2534 35.1428C55.8345 34.892 56.4608 34.7626 57.0937 34.7626C57.7267 34.7626 58.3529 34.892 58.9341 35.1428C59.5152 35.3936 60.039 35.7605 60.4732 36.221C60.9074 36.6815 61.2429 37.226 61.459 37.8208C61.6752 38.4157 61.7676 39.0485 61.7303 39.6803V43.3929C61.6931 42.761 61.7854 42.1282 62.0016 41.5333C62.2178 40.9385 62.5533 40.394 62.9875 39.9335C63.4217 39.473 63.9455 39.1061 64.5266 38.8553C65.1077 38.6045 65.734 38.4751 66.3669 38.4751C66.9999 38.4751 67.6262 38.6045 68.2073 38.8553C68.7884 39.1061 69.3122 39.473 69.7464 39.9335C70.1806 40.394 70.5161 40.9385 70.7323 41.5333C70.9484 42.1282 71.0408 42.761 71.0036 43.3929V64.5911C71.0036 67.9712 69.6608 71.2128 67.2707 73.6029C64.8806 75.993 61.639 77.3357 58.2589 77.3357H47.5714C45.3666 77.3582 43.2038 76.7323 41.3518 75.5357C40.917 75.2715 40.5219 74.9468 40.1786 74.5714L20.1696 54.6429C19.1701 53.6454 18.6077 52.2918 18.6062 50.8798C18.6047 49.4677 19.1642 48.1129 20.1616 47.1134C21.159 46.1139 22.5126 45.5515 23.9247 45.55C25.3367 45.5485 26.6915 46.1079 27.6911 47.1054L33.9107 53.325V25.1357C33.9803 23.9532 34.4992 22.842 35.3611 22.0294C36.2229 21.2168 37.3627 20.7642 38.5473 20.7642C39.7319 20.7642 40.8717 21.2168 41.7335 22.0294C42.5954 22.842 43.1143 23.9532 43.1839 25.1357V36.225Z" fill="white"/>
<path d="M71.4054 60.1232C71.4054 59.175 70.9876 64.2215 70.9876 64.2857V64.5911C70.9876 67.9712 69.6448 71.2128 67.2547 73.6029C64.8647 75.993 61.623 77.3357 58.2429 77.3357H47.5715C45.3667 77.3582 43.2039 76.7323 41.3518 75.5357C40.917 75.2715 40.522 74.9469 40.1786 74.5715L25.5215 59.9143L71.4054 60.1232Z" fill="#EAEAEA"/>
<path d="M58.2429 79.7464H47.5714C44.9455 79.7313 42.3792 78.9615 40.1786 77.5286C39.5895 77.1905 39.0488 76.7742 38.5714 76.2911L18.4661 56.25C17.7475 55.5324 17.1772 54.6803 16.7879 53.7423C16.3985 52.8044 16.1978 51.7989 16.197 50.7834C16.1963 49.7678 16.3956 48.762 16.7835 47.8235C17.1715 46.885 17.7405 46.032 18.4581 45.3134C19.1756 44.5948 20.0277 44.0245 20.9657 43.6352C21.9037 43.2458 22.9091 43.0451 23.9247 43.0443C24.9402 43.0436 25.946 43.2429 26.8845 43.6308C27.8231 44.0188 28.676 44.5878 29.3947 45.3054L31.5 47.4107V25.1357C31.5865 23.3249 32.3668 21.6168 33.6789 20.3658C34.9911 19.1149 36.7344 18.417 38.5473 18.417C40.3603 18.417 42.1036 19.1149 43.4158 20.3658C44.7279 21.6168 45.5082 23.3249 45.5947 25.1357V29.5393C46.3137 29.2932 47.0686 29.1683 47.8286 29.1696C49.1784 29.1639 50.5014 29.5454 51.6409 30.2689C52.7804 30.9925 53.6884 32.0277 54.2572 33.2518C55.1113 32.8714 56.033 32.6658 56.9678 32.6471C57.9027 32.6285 58.8318 32.7971 59.7005 33.143C60.5692 33.489 61.3598 34.0053 62.0258 34.6616C62.6919 35.3179 63.2198 36.1008 63.5786 36.9643C64.6472 36.5017 65.8138 36.3114 66.974 36.4105C68.1341 36.5095 69.2516 36.8949 70.2263 37.5319C71.201 38.1689 72.0024 39.0378 72.5588 40.0607C73.1152 41.0836 73.4091 42.2285 73.4143 43.3929V64.5911C73.41 68.612 71.8097 72.4668 68.965 75.3085C66.1203 78.1502 62.2638 79.7464 58.2429 79.7464ZM23.9304 47.925C23.1589 47.925 22.419 48.2315 21.8734 48.777C21.3279 49.3225 21.0214 50.0624 21.0214 50.8339C21.0193 51.2187 21.0934 51.6 21.2396 51.9559C21.3858 52.3117 21.6012 52.6351 21.8732 52.9071L41.7857 72.8678C41.9847 73.0622 42.2124 73.2248 42.4607 73.35L42.6375 73.4464C44.0654 74.4004 45.7417 74.9145 47.4589 74.925H58.1304C60.8698 74.9207 63.4958 73.8306 65.4329 71.8936C67.3699 69.9565 68.4601 67.3305 68.4643 64.5911V64.2857C68.4567 64.1841 68.4567 64.082 68.4643 63.9803V43.3929C68.4905 43.0846 68.4524 42.7744 68.3525 42.4816C68.2525 42.1889 68.0929 41.9201 67.8836 41.6923C67.6744 41.4645 67.4201 41.2827 67.1369 41.1583C66.8537 41.0339 66.5477 40.9696 66.2384 40.9696C65.9291 40.9696 65.6231 41.0339 65.3399 41.1583C65.0567 41.2827 64.8025 41.4645 64.5932 41.6923C64.384 41.9201 64.2243 42.1889 64.1243 42.4816C64.0244 42.7744 63.9863 43.0846 64.0125 43.3929C64.0125 44.0322 63.7585 44.6454 63.3064 45.0975C62.8543 45.5496 62.2412 45.8036 61.6018 45.8036C60.9624 45.8036 60.3493 45.5496 59.8972 45.0975C59.4451 44.6454 59.1911 44.0322 59.1911 43.3929V39.6804C59.2173 39.3721 59.1792 39.0619 59.0793 38.7691C58.9793 38.4764 58.8196 38.2076 58.6104 37.9798C58.4011 37.752 58.1469 37.5702 57.8637 37.4458C57.5805 37.3214 57.2745 37.2571 56.9652 37.2571C56.6559 37.2571 56.3499 37.3214 56.0667 37.4458C55.7835 37.5702 55.5292 37.752 55.32 37.9798C55.1107 38.2076 54.9511 38.4764 54.8511 38.7691C54.7512 39.0619 54.7131 39.3721 54.7393 39.6804C54.7393 40.3197 54.4853 40.9329 54.0332 41.385C53.5811 41.8371 52.9679 42.0911 52.3286 42.0911C51.6892 42.0911 51.076 41.8371 50.624 41.385C50.1719 40.9329 49.9179 40.3197 49.9179 39.6804V36.225C49.9441 35.9168 49.906 35.6065 49.806 35.3138C49.7061 35.021 49.5464 34.7523 49.3372 34.5245C49.1279 34.2967 48.8736 34.1148 48.5904 33.9904C48.3072 33.866 48.0013 33.8018 47.692 33.8018C47.3827 33.8018 47.0767 33.866 46.7935 33.9904C46.5103 34.1148 46.256 34.2967 46.0468 34.5245C45.8375 34.7523 45.6779 35.021 45.5779 35.3138C45.478 35.6065 45.4399 35.9168 45.4661 36.225C45.4661 36.8644 45.2121 37.4775 44.76 37.9296C44.3079 38.3817 43.6947 38.6357 43.0554 38.6357C42.416 38.6357 41.8028 38.3817 41.3507 37.9296C40.8986 37.4775 40.6447 36.8644 40.6447 36.225V25.1357C40.5972 24.578 40.3422 24.0585 39.93 23.6798C39.5178 23.3012 38.9785 23.0911 38.4188 23.0911C37.8591 23.0911 37.3198 23.3012 36.9076 23.6798C36.4954 24.0585 36.2403 24.578 36.1929 25.1357V53.2929C36.195 53.7697 36.0556 54.2365 35.7925 54.6341C35.5293 55.0317 35.1541 55.3424 34.7143 55.5268C34.28 55.6943 33.8066 55.7334 33.3507 55.6394C32.8947 55.5453 32.4755 55.3221 32.1429 54.9964L25.9232 48.7768C25.3954 48.2439 24.6803 47.9383 23.9304 47.925Z" fill="#0064A4"/>
<path d="M43.216 44.759C42.8994 44.759 42.5859 44.6966 42.2934 44.5755C42.001 44.4543 41.7352 44.2768 41.5114 44.0529C41.2875 43.829 41.1099 43.5633 40.9888 43.2708C40.8676 42.9783 40.8053 42.6649 40.8053 42.3483V36.4822C40.8053 35.8428 41.0593 35.2297 41.5114 34.7776C41.9635 34.3255 42.5766 34.0715 43.216 34.0715C43.8553 34.0715 44.4685 34.3255 44.9206 34.7776C45.3727 35.2297 45.6267 35.8428 45.6267 36.4822V42.3483C45.6267 42.6649 45.5644 42.9783 45.4432 43.2708C45.3221 43.5633 45.1445 43.829 44.9206 44.0529C44.6968 44.2768 44.431 44.4543 44.1385 44.5755C43.846 44.6966 43.5326 44.759 43.216 44.759ZM52.4249 47.3304C52.1083 47.3304 51.7949 47.2681 51.5024 47.1469C51.2099 47.0258 50.9441 46.8482 50.7203 46.6243C50.4964 46.4005 50.3189 46.1347 50.1977 45.8422C50.0766 45.5498 50.0142 45.2363 50.0142 44.9197V39.0697C50.0142 38.7531 50.0766 38.4396 50.1977 38.1472C50.3189 37.8547 50.4964 37.5889 50.7203 37.3651C50.9441 37.1412 51.2099 36.9636 51.5024 36.8425C51.7949 36.7213 52.1083 36.659 52.4249 36.659C52.7415 36.659 53.055 36.7213 53.3475 36.8425C53.6399 36.9636 53.9057 37.1412 54.1296 37.3651C54.3534 37.5889 54.531 37.8547 54.6521 38.1472C54.7733 38.4396 54.8356 38.7531 54.8356 39.0697V45.0001C54.8108 45.624 54.5464 46.2145 54.0974 46.6485C53.6484 47.0825 53.0494 47.3268 52.4249 47.3304ZM61.6981 49.1465C61.3816 49.1465 61.0681 49.0841 60.7756 48.963C60.4831 48.8418 60.2174 48.6643 59.9935 48.4404C59.7696 48.2165 59.5921 47.9508 59.4709 47.6583C59.3498 47.3658 59.2874 47.0523 59.2874 46.7358V40.8858C59.2874 40.2464 59.5414 39.6332 59.9935 39.1811C60.4456 38.729 61.0588 38.4751 61.6981 38.4751C62.3375 38.4751 62.9507 38.729 63.4028 39.1811C63.8549 39.6332 64.1088 40.2464 64.1088 40.8858V46.7358C64.1088 47.0523 64.0465 47.3658 63.9253 47.6583C63.8042 47.9508 63.6266 48.2165 63.4028 48.4404C63.1789 48.6643 62.9132 48.8418 62.6207 48.963C62.3282 49.0841 62.0147 49.1465 61.6981 49.1465ZM51.2838 26.9518C50.9673 26.9518 50.6538 26.8895 50.3613 26.7683C50.0688 26.6472 49.8031 26.4696 49.5792 26.2458C49.3554 26.0219 49.1778 25.7561 49.0566 25.4637C48.9355 25.1712 48.8731 24.8577 48.8731 24.5411C48.9288 23.1081 48.6947 21.6786 48.1847 20.3382C47.6747 18.9978 46.8994 17.7742 45.9052 16.7406C44.911 15.7071 43.7184 14.8848 42.3988 14.3232C41.0793 13.7615 39.6599 13.472 38.2258 13.472C36.7917 13.472 35.3723 13.7615 34.0528 14.3232C32.7332 14.8848 31.5406 15.7071 30.5464 16.7406C29.5523 17.7742 28.7769 18.9978 28.267 20.3382C27.757 21.6786 27.5228 23.1081 27.5785 24.5411C27.5785 25.1805 27.3245 25.7937 26.8724 26.2458C26.4203 26.6979 25.8071 26.9518 25.1678 26.9518C24.5284 26.9518 23.9152 26.6979 23.4631 26.2458C23.011 25.7937 22.7571 25.1805 22.7571 24.5411C22.6902 22.4678 23.0409 20.4022 23.7882 18.467C24.5355 16.5319 25.6642 14.7667 27.1072 13.2765C28.5502 11.7862 30.278 10.6012 32.1881 9.79195C34.0981 8.98269 36.1514 8.56567 38.2258 8.56567C40.3002 8.56567 42.3535 8.98269 44.2635 9.79195C46.1736 10.6012 47.9014 11.7862 49.3445 13.2765C50.7875 14.7667 51.9162 16.5319 52.6635 18.467C53.4108 20.4022 53.7614 22.4678 53.6946 24.5411C53.6946 24.8577 53.6322 25.1712 53.5111 25.4637C53.3899 25.7561 53.2123 26.0219 52.9885 26.2458C52.7646 26.4696 52.4989 26.6472 52.2064 26.7683C51.9139 26.8895 51.6004 26.9518 51.2838 26.9518Z" fill="#0064A4"/>
</svg>
