<svg width="115" height="131" viewBox="0 0 115 131" fill="none" xmlns="http://www.w3.org/2000/svg">
<path d="M78.6922 14.0194C94.4 22.1803 105.731 39.1261 107.618 59.3678L114.792 59.2796C112.082 26.113 87.2386 0.332629 57.1546 0.702232L53.9993 0.902685L72.3889 21.2111L78.6922 14.0194ZM48.7658 10.2371C45.9181 7.09221 41.3744 7.14803 38.6262 10.3617L8.48649 45.0097C5.69051 48.2239 5.73218 53.3435 8.57948 56.4345L66.5961 120.505C69.4439 123.649 73.9875 123.594 76.7357 120.38L106.875 85.732C109.671 82.5178 109.63 77.3982 106.782 74.3072L48.7658 10.2371ZM71.6194 114.73L13.6028 50.6598L43.7425 16.0118L101.759 80.0819L71.6194 114.73ZM36.6697 116.722C20.9624 108.615 9.63113 91.6156 7.74441 71.3739L0.570181 71.4621C3.2796 104.629 28.1234 130.409 58.2073 130.039L61.3626 129.839L42.973 109.531L36.6697 116.722Z" fill="#0198BD"/>
</svg>
