<svg width="104" height="128" viewBox="0 0 104 128" fill="none" xmlns="http://www.w3.org/2000/svg">
<path d="M51.8269 0C23.1967 0 0 28.5954 0 63.8889C0 99.1823 23.1967 127.778 51.8269 127.778C80.4571 127.778 103.654 99.1823 103.654 63.8889C103.654 28.5954 80.4571 0 51.8269 0ZM63.7597 90.1915L45.3277 73.6783C44.6798 73.0858 44.3037 72.1584 44.3037 71.1794V27.8226C44.3037 26.1223 45.4322 24.7312 46.8114 24.7312H56.8424C58.2217 24.7312 59.3502 26.1223 59.3502 27.8226V63.2964L72.6204 75.1983C73.7489 76.203 73.9788 78.1351 73.1637 79.5262L67.2705 89.5217C66.4555 90.8871 64.8881 91.1962 63.7597 90.1915Z" fill="#0198BD"/>
</svg>
